<svg version="1.1" id="Layer_1" xmlns="http://www.w3.org/2000/svg" xmlns:xlink="http://www.w3.org/1999/xlink" x="0px" y="0px"
	 width="100%" viewBox="0 0 261 84" enable-background="new 0 0 261 84" xml:space="preserve">
<path fill="#FCFCFC" opacity="1.000000" stroke="none" 
	d="
M210.000000,85.000000 
	C140.000015,85.000000 70.500031,85.000000 1.000037,85.000000 
	C1.000025,57.000023 1.000025,29.000046 1.000012,1.000052 
	C87.999962,1.000035 174.999924,1.000035 261.999908,1.000017 
	C261.999939,28.999949 261.999939,56.999897 261.999969,84.999924 
	C244.833328,85.000000 227.666672,85.000000 210.000000,85.000000 
M57.994312,65.000565 
	C57.994312,65.000565 57.901386,64.895981 57.338383,64.927727 
	C57.186489,65.246590 57.034595,65.565453 56.997307,65.989632 
	C56.997307,65.989632 56.898846,65.868942 56.334999,65.834908 
	C56.165459,66.135406 55.995918,66.435898 55.923088,66.891266 
	C55.923088,66.891266 55.787045,66.769493 55.009674,66.676422 
	C46.440132,70.587738 37.485012,70.657936 27.955721,69.851593 
	C27.955721,61.909229 27.955721,54.464989 28.493233,46.596672 
	C28.046724,45.395031 27.600216,44.193386 27.059893,42.064686 
	C27.034782,37.379124 27.009672,32.693562 27.491011,27.628460 
	C27.048082,26.749256 26.605154,25.870050 26.064741,24.118284 
	C26.237055,22.381716 26.409369,20.645145 26.703215,18.810392 
	C26.703215,18.810392 26.909971,18.578625 27.655949,18.287645 
	C27.764065,17.619717 27.872181,16.951790 27.980297,16.283861 
	C24.138260,15.999498 23.777542,18.321108 23.948750,21.363199 
	C24.673733,34.245029 25.185963,47.139690 26.013695,60.014374 
	C26.271614,64.026077 27.278143,67.989655 28.097191,72.725487 
	C28.918407,73.204613 29.765835,74.137802 30.556759,74.092148 
	C37.930416,73.666504 45.340858,73.412292 52.645332,72.412270 
	C57.798286,71.706810 61.570927,68.343430 64.567139,64.187538 
	C64.968666,65.836517 65.370193,67.485504 66.005508,69.787704 
	C67.840767,73.471649 70.897675,72.615677 74.846512,72.022629 
	C78.009537,71.914665 81.222649,72.103294 84.315720,71.581047 
	C86.013504,71.294395 87.508949,69.809364 89.507187,69.210129 
	C89.921631,69.508278 90.336082,69.806419 91.274284,70.772591 
	C95.221893,70.518341 99.169502,70.264091 102.572800,70.044899 
	C102.572800,62.685165 102.572800,56.059811 102.572800,49.447861 
	C113.267609,48.560658 113.279121,48.559284 112.063576,38.356678 
	C111.997505,37.802155 111.475998,37.301891 111.023827,35.971272 
	C107.861488,35.598537 104.699150,35.225807 101.372993,34.024097 
	C101.372993,32.243027 101.372993,30.461960 101.372993,27.898470 
	C105.730698,27.898470 109.823509,27.898470 114.580681,28.325901 
	C114.794350,29.884384 115.008018,31.442867 115.061096,33.920536 
	C115.126350,37.726654 115.100800,41.538475 115.338966,45.333740 
	C115.382858,46.033157 116.494568,46.665562 117.003639,48.248211 
	C116.944672,54.570690 116.885704,60.893166 117.121849,67.939476 
	C121.046761,72.788467 125.778275,68.917458 129.372040,69.765869 
	C129.372040,62.675903 129.372040,56.229420 129.790817,49.880569 
	C129.790817,49.880569 129.865219,49.457031 130.633759,49.584103 
	C131.412415,49.605698 132.191071,49.627296 133.427124,50.196808 
	C136.506882,55.851448 139.586624,61.506088 143.156082,67.815010 
	C147.320145,68.298065 151.484207,68.781113 156.875610,69.406540 
	C155.390396,66.726524 154.718597,65.514282 153.956406,63.554596 
	C152.591675,61.405281 151.226959,59.255966 149.862228,57.106651 
	C149.444839,57.319862 149.027451,57.533073 148.610062,57.746281 
	C149.358826,60.001774 150.107574,62.257263 150.800873,64.345695 
	C145.138229,66.349396 142.139297,64.409584 140.119843,59.305519 
	C138.267059,54.622734 135.452332,50.320545 132.497742,45.327023 
	C129.153168,45.309052 124.898857,43.759327 125.093719,50.126068 
	C125.126930,50.401363 125.235382,50.642792 125.623985,51.781704 
	C125.825439,56.319870 126.026894,60.858032 126.240425,65.668243 
	C123.227081,65.668243 120.997200,65.668243 117.863220,65.668243 
	C117.863220,57.410511 117.863220,49.374252 117.952965,40.650402 
	C117.770149,39.813004 117.587334,38.975605 117.211952,37.311905 
	C117.090309,36.186909 116.968666,35.061916 116.938080,33.112633 
	C116.648170,27.882401 116.174515,22.650925 116.209900,17.422892 
	C116.217804,16.255337 118.012787,15.099876 119.678337,14.016459 
	C120.761299,13.668666 121.844269,13.320873 123.502808,12.936017 
	C123.857254,12.542402 124.211708,12.148788 124.566162,11.755175 
	C124.077057,11.774099 123.587944,11.793023 122.359703,11.922516 
	C121.237099,12.274398 120.114487,12.626280 118.174446,13.011779 
	C115.949600,13.005021 113.720070,12.902000 111.500801,13.009916 
	C105.337540,13.309613 99.178551,13.697042 92.353355,13.950297 
	C91.612793,14.289238 90.872231,14.628180 89.589500,14.996393 
	C89.408562,14.992635 89.227615,14.988875 88.425278,14.965542 
	C87.281219,15.182781 86.137169,15.400021 84.572166,14.823683 
	C78.812714,14.823683 73.053261,14.823683 67.293808,14.823683 
	C67.282921,15.387692 67.272034,15.951703 67.261147,16.515713 
	C72.347992,16.515713 77.434845,16.515713 82.873772,16.515713 
	C82.416092,20.557768 85.193573,24.536814 79.189316,25.907454 
	C79.004158,25.949913 78.819008,25.992374 78.231537,26.699440 
	C78.340096,30.087177 78.448647,33.474915 78.776642,37.707500 
	C78.886818,39.444351 78.996994,41.181202 78.932053,43.816792 
	C79.028198,47.721092 77.420311,52.555717 84.044144,52.601730 
	C84.355721,57.715759 84.645645,62.474506 84.962471,67.674690 
	C78.860497,67.674690 73.314873,67.674690 67.071854,67.674690 
	C68.595932,62.223206 63.355579,56.051258 70.573219,51.535522 
	C68.795029,51.362743 67.351242,51.222458 65.389114,50.834885 
	C64.932648,50.628597 64.476181,50.422314 63.885422,49.406300 
	C64.017296,43.860165 60.010605,40.986332 56.863445,37.279243 
	C61.809746,31.625984 62.205936,26.616627 58.015640,21.965885 
	C57.025192,20.444548 56.034744,18.923212 55.044292,17.401875 
	C54.535934,17.719847 54.027573,18.037817 53.519211,18.355789 
	C54.599705,20.563587 55.680199,22.771385 56.925911,25.654423 
	C56.871010,26.111269 56.816109,26.568113 56.297684,27.591124 
	C56.226311,28.565113 56.154938,29.539101 56.140690,31.143766 
	C54.806065,32.401810 53.471439,33.659851 51.469517,34.819370 
	C50.840931,35.394653 50.212345,35.969936 49.583763,36.545219 
	C50.078499,37.012318 50.573238,37.479412 51.027771,38.001263 
	C51.027771,38.001263 51.022495,37.933537 51.453178,38.478722 
	C59.515476,41.458973 62.229233,44.834335 61.056091,51.485699 
	C60.373672,54.998241 59.691254,58.510784 58.890694,62.642166 
	C58.872452,63.050968 58.854210,63.459766 58.995167,64.000000 
	C58.995167,64.000000 58.838741,63.868500 58.265907,63.900837 
	C58.140781,64.235985 58.015652,64.571121 57.994312,65.000565 
M43.955528,53.371559 
	C43.539501,53.057522 43.123470,52.743484 42.707443,52.429447 
	C42.474030,52.951824 42.240616,53.474197 41.322803,54.010262 
	C40.712101,54.333893 40.101398,54.657520 39.490696,54.981148 
	C39.786087,55.262375 40.081478,55.543606 40.376862,55.824837 
	C40.919052,55.214230 41.461243,54.603626 42.658539,54.007244 
	C43.094608,54.026882 43.530674,54.046520 44.393261,54.554539 
	C45.263577,54.036858 46.133888,53.519176 47.496094,53.005589 
	C47.496094,53.005589 47.987782,53.020275 48.171257,53.346764 
	C48.452888,53.247711 48.734516,53.148659 49.455883,52.815193 
	C49.725761,52.607674 49.927822,52.347481 50.690029,51.651608 
	C51.114635,50.312550 52.296951,48.519299 51.818691,47.721439 
	C50.498207,45.518532 48.766350,42.545864 46.679703,42.048492 
	C43.251965,41.231453 39.416172,42.126358 35.752434,42.299412 
	C36.083599,43.209496 36.414768,44.119583 36.989117,45.802818 
	C37.298470,47.523693 37.607826,49.244572 38.626957,50.912117 
	C39.755627,49.011971 40.884300,47.111828 42.796509,45.043800 
	C43.860794,45.085690 44.925079,45.127583 46.152882,45.851574 
	C47.411392,46.270569 48.669903,46.689564 49.962906,47.811852 
	C49.958019,48.515804 49.953136,49.219761 49.267082,50.029675 
	C48.165779,51.015739 47.064480,52.001804 45.470524,53.196224 
	C45.001724,53.453106 44.532925,53.709988 43.955528,53.371559 
M137.841827,35.743610 
	C138.306152,34.486977 138.770462,33.230343 139.501633,31.386965 
	C139.489105,30.555931 139.476578,29.724895 139.563293,28.267078 
	C138.863403,27.004158 138.163528,25.741240 137.199707,24.081633 
	C136.973862,23.841896 136.700974,23.682867 135.769028,23.130543 
	C132.156204,23.426357 128.543396,23.722172 124.637245,24.597591 
	C124.551880,24.796587 124.466507,24.995581 124.171837,25.505304 
	C124.280472,25.960537 124.389114,26.415770 124.695969,27.788473 
	C125.830193,31.365387 123.031288,35.880581 127.760475,38.911400 
	C128.744232,38.833759 129.727997,38.756119 131.435623,38.393734 
	C131.939438,38.270531 132.443237,38.147327 133.663376,38.071709 
	C134.876511,37.437393 136.089630,36.803074 137.841827,35.743610 
M49.196636,18.279587 
	C49.683254,18.257044 50.169868,18.234501 50.656487,18.211958 
	C50.353054,17.768133 50.049625,17.324308 49.632500,16.147196 
	C47.399548,15.847253 45.166595,15.547309 42.038803,15.156045 
	C39.346218,15.285859 36.653633,15.415672 33.538364,15.398943 
	C33.222771,15.447276 32.974079,15.602766 32.177063,15.869729 
	C31.651716,16.366983 31.126368,16.864237 30.996290,17.679337 
	C31.323364,17.662302 31.650440,17.645267 32.678238,17.670431 
	C33.138203,17.592037 33.598167,17.513643 34.474545,17.599283 
	C34.791042,17.564690 35.048611,17.422892 36.103642,17.210123 
	C38.402534,17.132601 40.701431,17.055080 43.686497,17.272751 
	C45.420109,17.437424 47.153717,17.602095 49.196636,18.279587 
M218.993118,38.006142 
	C218.993118,38.006142 219.023651,38.006805 219.394257,37.341896 
	C216.495804,34.572647 213.597351,31.803394 210.739151,28.229700 
	C210.880814,27.715023 211.022491,27.200344 211.456604,26.692488 
	C211.644852,26.582146 211.732239,26.417980 212.589813,26.075483 
	C215.127335,25.757248 217.715210,25.642097 220.180161,25.031109 
	C221.332214,24.745548 222.246613,23.501263 223.972260,22.763214 
	C226.655136,22.876720 229.337997,22.990225 232.005951,23.976589 
	C232.005951,26.707050 232.005951,29.437511 232.005951,32.167973 
	C232.854462,32.089226 233.702972,32.010475 234.551483,31.931726 
	C233.859222,28.213560 233.166962,24.495394 232.292435,20.121437 
	C230.035645,19.654240 227.778839,19.187044 225.052170,18.622574 
	C225.052170,16.106834 225.052170,13.557615 225.806305,11.002095 
	C226.895065,10.302477 227.983826,9.602859 229.818619,9.288818 
	C235.798447,9.581066 241.778290,9.873314 247.972336,10.176032 
	C247.972336,12.905879 247.972336,15.308751 247.972336,17.925261 
	C245.649399,18.248919 243.587097,18.536263 240.814194,18.922617 
	C241.161438,25.842649 241.499023,32.569927 241.773026,40.183113 
	C241.773026,46.956093 241.773026,53.729073 241.773026,60.775997 
	C239.392426,60.775997 237.035843,60.775997 233.968781,60.775997 
	C233.968781,55.612923 233.968781,50.815052 234.525177,45.527527 
	C235.371048,41.209335 235.286057,40.970108 232.275818,41.528885 
	C232.242859,44.028145 232.209885,46.527409 232.035873,49.928028 
	C232.283005,53.780781 232.530136,57.633530 232.592697,61.955681 
	C232.868866,62.313160 233.145020,62.670639 233.888535,63.711315 
	C237.888199,63.969200 241.887848,64.227081 245.029465,64.429642 
	C245.029465,55.120842 245.029465,46.541466 245.256622,37.130383 
	C244.760696,32.640141 244.264786,28.149897 243.883575,24.698231 
	C247.347977,22.981726 252.016571,21.701256 251.998535,20.490616 
	C251.935699,16.272751 254.542847,11.037642 248.629349,7.312113 
	C242.119705,7.853335 235.610046,8.394556 228.267242,8.979995 
	C227.435257,9.014090 226.603256,9.048184 225.082382,9.062749 
	C224.108185,9.816968 223.133972,10.571186 221.654602,11.029905 
	C221.477539,10.947982 221.300491,10.866059 221.063782,10.001344 
	C217.025696,9.412946 212.987595,8.824548 208.148056,8.135393 
	C199.023010,8.710813 194.037704,13.451494 192.967239,22.471966 
	C192.796036,23.914543 192.314316,25.320269 191.456406,26.780790 
	C191.287704,26.739388 191.119003,26.697987 190.978409,25.936199 
	C189.995529,23.313978 188.951904,20.712580 188.044281,18.064564 
	C186.739395,14.257538 184.495087,11.767820 179.865128,11.416063 
	C175.724533,9.530802 171.483627,8.762989 166.341980,10.210436 
	C164.565109,11.462456 162.788254,12.714477 160.980667,13.975571 
	C160.980667,13.975571 160.965469,14.003777 160.240891,13.812121 
	C157.855057,17.323019 155.469223,20.833916 152.768417,23.737888 
	C152.128250,22.817217 151.488083,21.896545 150.753235,20.328144 
	C146.402985,12.522801 139.276260,11.299002 130.441086,12.035470 
	C129.118622,12.202332 127.796158,12.369196 126.473694,12.536058 
	C126.529335,12.985124 126.584976,13.434190 126.640617,13.883255 
	C128.189957,13.883255 129.739304,13.883255 132.145004,13.796711 
	C138.533295,13.539998 144.377213,14.577559 148.172165,21.103914 
	C148.393677,21.400530 148.615173,21.697145 149.034241,22.433308 
	C149.034241,22.433308 149.060333,22.914501 149.168320,23.354744 
	C149.302307,23.643618 149.516449,23.848940 150.253082,24.800560 
	C152.038925,33.439400 149.065857,40.002476 141.358643,44.011730 
	C142.426376,46.415058 143.229935,48.223751 144.010147,50.763168 
	C144.816208,52.495102 145.622253,54.227036 146.428314,55.958973 
	C146.849014,55.716572 147.269730,55.474171 147.690430,55.231770 
	C147.126312,53.818306 146.562195,52.404842 145.972977,50.246540 
	C145.918640,48.965061 145.302399,47.139191 145.916519,46.505337 
	C147.678864,44.686329 149.939346,43.349953 152.587677,42.260616 
	C152.755280,43.449856 152.922897,44.639095 153.118286,46.532688 
	C153.766464,47.738277 154.414627,48.943871 155.024170,50.913582 
	C155.734283,57.539646 159.376266,62.050476 165.046371,65.572830 
	C165.675522,65.914146 166.304688,66.255463 167.523529,67.075058 
	C178.606781,71.764259 188.187637,67.238426 193.644882,55.530674 
	C193.935013,57.486095 193.911835,59.560238 194.596237,61.366261 
	C195.413330,63.522507 196.055008,66.533676 200.072723,65.763824 
	C203.816879,66.209343 207.587372,67.186272 211.300308,67.002129 
	C223.096619,66.417091 228.706985,56.888649 224.000473,44.985050 
	C223.342178,43.835342 222.683884,42.685631 222.003799,40.718681 
	C221.001373,39.804382 219.998947,38.890083 218.993118,38.006142 
M44.488049,33.959846 
	C44.488049,33.959846 44.972267,33.955872 45.362885,34.357204 
	C48.773273,32.864586 49.240444,30.266270 47.891018,27.168142 
	C46.114834,23.090212 42.434433,22.535133 38.750626,23.135740 
	C37.046333,23.413609 34.563927,24.934923 34.226318,26.327074 
	C33.523312,29.225943 34.013741,32.414234 34.013741,36.378517 
	C35.591724,35.248837 36.305538,34.737820 37.701538,34.194462 
	C38.791885,34.517597 39.882229,34.840733 41.432049,35.614468 
	C42.289410,35.068745 43.146767,34.523018 44.488049,33.959846 
M63.063828,17.905571 
	C63.034073,23.147652 61.967377,28.889521 69.392197,30.853949 
	C69.542290,29.183386 69.674255,27.714582 69.826370,26.021498 
	C64.702393,26.374365 65.394867,22.795921 65.008759,19.698378 
	C64.906212,18.875641 66.896507,15.626678 63.063828,17.905571 
M71.856964,33.365120 
	C71.369896,33.245544 70.882835,33.125969 70.395767,33.006393 
	C70.395767,37.044239 70.395767,41.082085 70.395767,45.119934 
	C70.922272,45.113663 71.448769,45.107391 71.975273,45.101120 
	C71.975273,41.460949 71.975273,37.820782 71.856964,33.365120 
M37.676819,54.188625 
	C37.261318,53.519077 36.845814,52.849533 36.430313,52.179985 
	C36.016552,52.585545 35.602795,52.991104 35.189034,53.396664 
	C35.851738,53.824718 36.514442,54.252777 37.676819,54.188625 
z"/>
<path fill="#FEF5F5" opacity="1.000000" stroke="none" 
	d="
M180.129364,11.998096 
	C184.495087,11.767820 186.739395,14.257538 188.044281,18.064564 
	C188.951904,20.712580 189.995529,23.313978 190.872375,26.704277 
	C190.693985,29.047342 190.394028,30.650839 190.587143,32.192585 
	C191.649933,40.678280 191.031021,48.959705 187.728973,57.190807 
	C187.345978,57.926723 187.180832,58.463722 187.006622,58.999802 
	C186.997589,58.998878 187.002701,59.016506 186.728592,59.047249 
	C186.337296,59.404388 186.220093,59.730793 186.067230,60.044594 
	C186.031570,60.031990 186.068405,60.098087 185.803543,60.130562 
	C185.401245,60.469021 185.263794,60.775002 185.091293,61.061272 
	C185.056244,61.041561 185.086441,61.116093 184.731018,61.187462 
	C179.199661,65.253036 173.174652,65.089157 167.019180,64.462776 
	C162.034821,61.109959 158.528992,57.014320 156.853104,51.415543 
	C156.688095,50.864277 155.679733,50.565456 155.062805,50.149460 
	C154.414627,48.943871 153.766464,47.738277 153.399673,46.263813 
	C154.196564,45.347702 155.202774,44.661232 155.154633,44.059055 
	C154.309570,33.488659 154.659912,23.181437 160.965469,14.003777 
	C160.965469,14.003777 160.980667,13.975571 161.333542,14.162033 
	C163.780548,13.543406 165.874680,12.738317 168.419693,11.950036 
	C172.623505,11.977262 176.376434,11.987679 180.129364,11.998096 
M182.128632,41.068062 
	C182.117111,38.404507 182.138153,35.740330 182.087234,33.077526 
	C181.983887,27.670116 179.735519,24.068727 175.034897,22.935926 
	C170.596863,22.506735 166.252701,22.601849 164.548843,27.758427 
	C162.690002,33.383980 161.474091,39.102070 166.035812,44.344818 
	C166.035812,44.344818 165.982681,44.466965 165.830200,45.298004 
	C166.892441,46.639938 167.681778,48.483883 169.064804,49.235733 
	C174.646194,52.269913 179.703644,49.314777 182.128632,41.068062 
z"/>
<path fill="#FEF7F7" opacity="1.000000" stroke="none" 
	d="
M222.025574,41.535927 
	C222.683884,42.685631 223.342178,43.835342 223.808762,45.459347 
	C223.333878,46.954933 222.796051,47.979588 222.809509,48.996960 
	C222.887756,54.917072 220.711639,59.438580 214.714920,61.995274 
	C209.381607,62.078766 204.471878,62.356094 199.587173,62.118717 
	C198.435562,62.062748 196.556992,60.376659 196.414383,59.261288 
	C195.989670,55.939270 196.262039,52.528126 196.262039,48.890778 
	C198.669907,49.013542 200.302231,49.096764 202.225739,49.451031 
	C204.453888,49.787289 206.458939,50.203819 208.313553,49.844296 
	C212.126740,49.105091 212.889587,46.212013 210.263321,42.653549 
	C209.813477,42.633232 209.536835,42.665318 209.260178,42.697407 
	C209.399994,43.092136 209.539810,43.486862 209.785553,44.274734 
	C209.467651,49.853821 205.395935,47.419846 202.558258,47.806335 
	C199.743515,47.007355 197.168274,46.465908 194.520752,45.475204 
	C194.374115,41.654121 194.299744,38.282295 194.446716,34.753532 
	C195.680283,34.064548 196.692520,33.532509 197.706161,32.999722 
	C196.785156,31.310246 195.887222,29.663097 195.200775,27.750814 
	C194.432358,15.951220 197.078171,12.506124 209.417755,9.892265 
	C219.845047,10.045300 220.784958,11.240895 218.527390,19.991140 
	C216.004288,21.055143 213.890793,21.946419 211.385162,22.839439 
	C207.445740,23.560221 207.438293,26.056568 208.101135,29.165752 
	C211.819077,32.335678 215.421371,35.171238 219.023651,38.006802 
	C219.023651,38.006805 218.993118,38.006142 218.987793,38.348999 
	C219.996826,39.639881 221.011200,40.587906 222.025574,41.535927 
M202.697098,39.855858 
	C204.145218,40.261246 205.593323,40.666634 207.041443,41.072021 
	C207.089508,40.583645 207.137558,40.095272 207.185623,39.606895 
	C204.682770,38.231544 202.179932,36.856194 199.677078,35.480843 
	C199.214661,36.048409 198.752258,36.615974 198.289841,37.183540 
	C199.563782,37.949715 200.837723,38.715885 202.697098,39.855858 
z"/>
<path fill="#FFF9F9" opacity="1.000000" stroke="none" 
	d="
M89.046661,14.985117 
	C89.227615,14.988875 89.408562,14.992635 90.155518,15.089872 
	C91.495163,15.380805 92.268799,15.578259 93.367538,15.836555 
	C94.130974,15.870342 94.569283,15.843287 95.335785,15.880981 
	C96.107178,15.913217 96.550392,15.880699 97.413544,15.901011 
	C99.796257,15.668889 101.750488,15.245049 103.723328,15.123637 
	C111.256012,14.660071 112.234436,16.003605 109.992935,23.569685 
	C106.082787,23.928055 100.682198,22.888826 98.633408,25.040752 
	C96.569946,27.208092 97.837372,32.546677 97.623909,36.936119 
	C102.012039,36.936119 105.266029,36.936119 108.756912,36.936119 
	C108.756912,39.876228 108.756912,42.388912 108.756912,44.969830 
	C107.362885,45.062645 106.376732,45.164425 105.388702,45.188343 
	C97.835785,45.371185 97.871407,45.363785 98.456947,53.154037 
	C98.799522,57.711758 99.006317,62.279675 99.269058,66.755402 
	C94.354950,67.679459 90.596466,67.989548 90.993561,61.544907 
	C90.389488,45.728561 89.718071,30.356838 89.046661,14.985117 
z"/>
<path fill="#D57272" opacity="1.000000" stroke="none" 
	d="
M95.007599,15.816231 
	C94.569283,15.843287 94.130974,15.870342 93.361511,15.549071 
	C93.026207,14.817099 93.022034,14.433455 93.017868,14.049810 
	C99.178551,13.697042 105.337540,13.309613 111.500801,13.009916 
	C113.720070,12.902000 115.949600,13.005021 118.582260,13.235144 
	C118.990067,13.458509 118.985001,13.938848 118.985001,13.938848 
	C118.012787,15.099876 116.217804,16.255337 116.209900,17.422892 
	C116.174515,22.650925 116.648170,27.882401 116.679520,33.427044 
	C116.021210,33.494755 115.621445,33.248051 115.221687,33.001350 
	C115.008018,31.442867 114.794350,29.884384 114.296532,27.659615 
	C114.012383,23.190386 114.012383,19.387442 114.012383,15.584496 
	C113.510948,15.565230 113.009506,15.545964 112.508072,15.526698 
	C112.334602,17.178867 111.872154,18.861595 112.043015,20.477350 
	C112.514519,24.936035 110.577957,26.485088 106.299492,26.041950 
	C103.899170,25.793341 101.451965,25.997200 98.988754,25.997200 
	C98.988754,28.879950 98.787979,31.062475 99.105759,33.166683 
	C99.206833,33.835930 100.687462,34.296833 101.536812,34.853073 
	C104.699150,35.225807 107.861488,35.598537 110.735550,36.585091 
	C110.447273,39.941914 110.447273,42.684914 110.447273,45.590122 
	C106.936424,46.074657 103.569672,46.539303 99.941208,47.040070 
	C99.941208,54.114132 99.941208,60.836765 99.941208,66.958687 
	C96.567322,68.113541 93.658920,69.109055 90.750526,70.104568 
	C90.336082,69.806419 89.921631,69.508278 89.113312,68.676941 
	C88.522614,65.095863 88.325806,62.047970 88.440353,59.058475 
	C89.476547,60.074429 90.201393,61.031979 90.926231,61.989529 
	C90.596466,67.989548 94.354950,67.679459 99.269058,66.755402 
	C99.006317,62.279675 98.799522,57.711758 98.456947,53.154037 
	C97.871407,45.363785 97.835785,45.371185 105.388702,45.188343 
	C106.376732,45.164425 107.362885,45.062645 108.756912,44.969830 
	C108.756912,42.388912 108.756912,39.876228 108.756912,36.936119 
	C105.266029,36.936119 102.012039,36.936119 97.623909,36.936119 
	C97.837372,32.546677 96.569946,27.208092 98.633408,25.040752 
	C100.682198,22.888826 106.082787,23.928055 109.992935,23.569685 
	C112.234436,16.003605 111.256012,14.660071 103.723328,15.123637 
	C101.750488,15.245049 99.796257,15.668889 97.371902,15.622485 
	C96.597725,14.995855 96.285133,14.700579 95.972542,14.405302 
	C95.650894,14.875610 95.329247,15.345921 95.007599,15.816231 
z"/>
<path fill="#201414" opacity="1.000000" stroke="none" 
	d="
M64.019714,50.216030 
	C64.476181,50.422314 64.932648,50.628597 65.507271,51.338631 
	C65.087700,55.785156 64.549980,59.727932 64.012253,63.670708 
	C61.570927,68.343430 57.798286,71.706810 52.645332,72.412270 
	C45.340858,73.412292 37.930416,73.666504 30.556759,74.092148 
	C29.765835,74.137802 28.918407,73.204613 28.490395,72.381805 
	C32.696117,72.031311 36.648586,72.663307 40.287926,71.866020 
	C45.572826,70.708206 50.631748,68.518898 55.787045,66.769493 
	C55.787045,66.769493 55.923088,66.891266 56.144150,66.814941 
	C56.543087,66.448723 56.720966,66.158829 56.898842,65.868942 
	C56.898846,65.868942 56.997307,65.989632 57.212513,65.904556 
	C57.585609,65.511650 57.743496,65.203819 57.901386,64.895981 
	C57.901386,64.895981 57.994312,65.000565 58.211540,64.905510 
	C58.565426,64.496468 58.702084,64.182487 58.838741,63.868500 
	C58.838741,63.868500 58.995167,64.000000 59.228073,63.858963 
	C59.910255,63.079975 60.359528,62.442024 60.952965,61.442406 
	C61.799095,57.734886 62.501064,54.389030 63.431576,51.020836 
	C63.974506,50.827084 64.094376,50.566257 64.019714,50.216030 
z"/>
<path fill="#E47E7E" opacity="1.000000" stroke="none" 
	d="
M55.398361,66.722961 
	C50.631748,68.518898 45.572826,70.708206 40.287926,71.866020 
	C36.648586,72.663307 32.696117,72.031311 28.412786,72.006683 
	C27.278143,67.989655 26.271614,64.026077 26.013695,60.014374 
	C25.185963,47.139690 24.673733,34.245029 23.948750,21.363199 
	C23.777542,18.321108 24.138260,15.999498 27.980297,16.283861 
	C27.872181,16.951790 27.764065,17.619717 27.153927,18.365147 
	C26.651903,18.442646 26.449173,18.649994 26.449173,18.649994 
	C26.449173,18.649994 26.581682,18.908577 26.581682,18.908577 
	C26.409369,20.645145 26.237055,22.381716 26.051342,24.894402 
	C26.353481,26.449678 26.669022,27.228838 26.984562,28.007999 
	C27.009672,32.693562 27.034782,37.379124 27.041311,42.893143 
	C27.333727,44.821316 27.644724,45.921032 27.955721,47.020748 
	C27.955721,54.464989 27.955721,61.909229 27.955721,69.851593 
	C37.485012,70.657936 46.440132,70.587738 55.398361,66.722961 
z"/>
<path fill="#382121" opacity="1.000000" stroke="none" 
	d="
M215.147659,62.001064 
	C220.711639,59.438580 222.887756,54.917072 222.809509,48.996960 
	C222.796051,47.979588 223.333878,46.954933 223.905396,45.780285 
	C228.706985,56.888649 223.096619,66.417091 211.300308,67.002129 
	C207.587372,67.186272 203.816879,66.209343 200.346619,65.338318 
	C205.624878,64.750404 210.930511,66.091064 215.147659,62.001064 
z"/>
<path fill="#5A2525" opacity="1.000000" stroke="none" 
	d="
M152.004028,41.823868 
	C149.939346,43.349953 147.678864,44.686329 145.916519,46.505337 
	C145.302399,47.139191 145.918640,48.965061 145.702408,50.585884 
	C144.965729,50.627632 144.499603,50.330036 144.033493,50.032440 
	C143.229935,48.223751 142.426376,46.415058 141.358643,44.011730 
	C149.065857,40.002476 152.038925,33.439400 150.075043,24.135357 
	C149.618118,23.284939 149.339233,23.099722 149.060333,22.914503 
	C149.060333,22.914501 149.034241,22.433308 149.027008,21.957838 
	C149.108719,21.324677 149.197678,21.166985 149.546326,21.075939 
	C150.153320,21.087015 150.500610,21.031445 150.847916,20.975872 
	C151.488083,21.896545 152.128250,22.817217 152.948822,24.423843 
	C152.754166,30.681156 152.379105,36.252514 152.004028,41.823868 
z"/>
<path fill="#1C1212" opacity="1.000000" stroke="none" 
	d="
M194.225388,34.910469 
	C194.299744,38.282295 194.374115,41.654121 194.388641,45.875202 
	C193.911575,49.484306 193.494339,52.244156 193.077103,55.004005 
	C188.187637,67.238426 178.606781,71.764259 167.603775,66.655807 
	C170.823212,66.110054 174.128525,66.551651 177.054459,65.695953 
	C179.932129,64.854362 182.424820,62.696419 185.086441,61.116096 
	C185.086441,61.116093 185.056244,61.041561 185.379410,61.064487 
	C185.824524,60.757641 185.946472,60.427864 186.068405,60.098087 
	C186.068405,60.098087 186.031570,60.031990 186.353912,60.030621 
	C186.785065,59.691669 186.893875,59.354088 187.002686,59.016502 
	C187.002701,59.016506 186.997589,58.998878 187.319504,59.006889 
	C188.067947,58.341644 188.494476,57.668392 189.103333,56.671955 
	C190.202271,51.872337 191.188248,47.408581 192.009384,42.914700 
	C192.498306,40.238934 192.728134,37.515827 193.359299,34.872498 
	C193.837891,34.924152 194.031647,34.917309 194.225388,34.910469 
z"/>
<path fill="#FEF4F4" opacity="1.000000" stroke="none" 
	d="
M37.019352,34.226799 
	C36.305538,34.737820 35.591724,35.248837 34.013741,36.378517 
	C34.013741,32.414234 33.523312,29.225943 34.226318,26.327074 
	C34.563927,24.934923 37.046333,23.413609 38.750626,23.135740 
	C42.434433,22.535133 46.114834,23.090212 47.891018,27.168142 
	C49.240444,30.266270 48.773273,32.864586 45.135353,33.880333 
	C44.493248,33.109833 44.078674,32.816204 43.664101,32.522572 
	C43.777443,33.007477 43.890781,33.492386 44.004124,33.977291 
	C43.146767,34.523018 42.289410,35.068745 41.179592,35.006466 
	C35.383030,27.477146 44.014648,29.989195 45.816292,27.794394 
	C37.491520,25.482071 36.584751,26.190670 37.019352,34.226799 
M45.832493,30.749453 
	C45.987389,30.639503 46.142281,30.529552 46.297176,30.419603 
	C46.080505,30.440712 45.863838,30.461823 45.832493,30.749453 
z"/>
<path fill="#1D1010" opacity="1.000000" stroke="none" 
	d="
M91.012405,70.438583 
	C93.658920,69.109055 96.567322,68.113541 99.941208,66.958687 
	C99.941208,60.836765 99.941208,54.114132 99.941208,47.040070 
	C103.569672,46.539303 106.936424,46.074657 110.447273,45.590122 
	C110.447273,42.684914 110.447273,39.941914 110.806885,36.987640 
	C111.475998,37.301891 111.997505,37.802155 112.063576,38.356678 
	C113.279121,48.559284 113.267609,48.560658 102.572800,49.447861 
	C102.572800,56.059811 102.572800,62.685165 102.572800,70.044899 
	C99.169502,70.264091 95.221893,70.518341 91.012405,70.438583 
z"/>
<path fill="#E18484" opacity="1.000000" stroke="none" 
	d="
M229.100403,8.935778 
	C235.610046,8.394556 242.119705,7.853335 248.967163,7.998980 
	C249.483475,11.329267 249.955917,14.001090 249.704468,16.602961 
	C249.594742,17.738382 247.960327,19.670240 247.089462,19.631718 
	C242.251373,19.417702 241.592896,22.068424 241.981247,25.932983 
	C242.179123,27.902124 242.038101,29.905323 242.031616,32.351734 
	C241.954163,34.972630 241.895386,37.134918 241.836594,39.297207 
	C241.499023,32.569927 241.161438,25.842649 240.814194,18.922617 
	C243.587097,18.536263 245.649399,18.248919 247.972336,17.925261 
	C247.972336,15.308751 247.972336,12.905879 247.972336,10.176032 
	C241.778290,9.873314 235.798447,9.581066 229.412506,9.140987 
	C229.006393,8.993156 229.100403,8.935777 229.100403,8.935778 
z"/>
<path fill="#E58C8C" opacity="1.000000" stroke="none" 
	d="
M64.289703,63.929123 
	C64.549980,59.727932 65.087700,55.785156 65.766441,51.462273 
	C67.351242,51.222458 68.795029,51.362743 70.573219,51.535522 
	C63.355579,56.051258 68.595932,62.223206 67.071854,67.674690 
	C73.314873,67.674690 78.860497,67.674690 84.962471,67.674690 
	C84.645645,62.474506 84.355721,57.715759 84.044144,52.601730 
	C77.420311,52.555717 79.028198,47.721092 79.206291,43.409054 
	C79.480530,43.001316 79.845337,43.116249 79.886429,43.521675 
	C79.960487,45.584564 79.842392,47.268566 80.125938,48.881989 
	C80.202866,49.319759 81.492790,49.544357 82.594772,49.821182 
	C84.054276,50.444359 85.145004,51.113155 85.868408,51.966949 
	C85.565399,57.663719 85.629715,63.175495 85.247787,68.701248 
	C78.458275,68.854973 72.114998,68.994728 65.771721,69.134483 
	C65.370193,67.485504 64.968666,65.836517 64.289703,63.929123 
z"/>
<path fill="#D07F7F" opacity="1.000000" stroke="none" 
	d="
M193.360992,55.267342 
	C193.494339,52.244156 193.911575,49.484306 194.460938,46.324459 
	C197.168274,46.465908 199.743515,47.007355 202.343231,47.923809 
	C202.125107,48.544182 201.980713,48.837906 201.934555,49.179989 
	C200.302231,49.096764 198.669907,49.013542 196.262039,48.890778 
	C196.262039,52.528126 195.989670,55.939270 196.414383,59.261288 
	C196.556992,60.376659 198.435562,62.062748 199.587173,62.118717 
	C204.471878,62.356094 209.381607,62.078766 214.714920,61.995274 
	C210.930511,66.091064 205.624878,64.750404 200.155273,65.018707 
	C196.055008,66.533676 195.413330,63.522507 194.596237,61.366261 
	C193.911835,59.560238 193.935013,57.486095 193.360992,55.267342 
z"/>
<path fill="#DD7C7C" opacity="1.000000" stroke="none" 
	d="
M90.993561,61.544907 
	C90.201393,61.031979 89.476547,60.074429 88.368843,58.628761 
	C87.938644,56.400162 87.891312,54.659683 87.999115,52.564484 
	C88.129257,45.917065 88.177155,39.622623 88.026077,33.332958 
	C87.990013,31.830917 87.290230,30.344816 86.926285,28.422171 
	C86.304443,24.257399 85.652023,20.521839 85.003662,16.589825 
	C85.024826,16.134253 85.019958,15.875549 84.993111,15.617262 
	C86.137169,15.400021 87.281219,15.182781 88.735970,14.975329 
	C89.718071,30.356838 90.389488,45.728561 90.993561,61.544907 
z"/>
<path fill="#2F1212" opacity="1.000000" stroke="none" 
	d="
M242.050262,31.893127 
	C242.038101,29.905323 242.179123,27.902124 241.981247,25.932983 
	C241.592896,22.068424 242.251373,19.417702 247.089462,19.631718 
	C247.960327,19.670240 249.594742,17.738382 249.704468,16.602961 
	C249.955917,14.001090 249.483475,11.329267 249.312622,8.264219 
	C254.542847,11.037642 251.935699,16.272751 251.998535,20.490616 
	C252.016571,21.701256 247.347977,22.981726 243.883575,24.698231 
	C244.264786,28.149897 244.760696,32.640141 244.867584,37.789719 
	C244.041519,40.297684 243.604507,42.146317 243.111084,43.542213 
	C242.719849,39.357361 242.385056,35.625244 242.050262,31.893127 
z"/>
<path fill="#2F1414" opacity="1.000000" stroke="none" 
	d="
M129.372040,49.782936 
	C129.372040,56.229420 129.372040,62.675903 129.372040,69.765869 
	C125.778275,68.917458 121.046761,72.788467 117.437508,67.580765 
	C119.568924,67.191788 121.388802,67.069885 123.199539,67.151314 
	C126.442375,67.297150 127.786293,66.635948 127.223000,62.668037 
	C126.498367,57.563694 127.046700,52.278637 127.046700,47.052238 
	C129.341904,47.052238 131.148743,47.052238 133.048676,47.369453 
	C133.084427,48.340744 133.027084,48.994820 132.969727,49.648891 
	C132.191071,49.627296 131.412415,49.605698 130.152985,49.398384 
	C129.672226,49.212666 129.268921,49.404255 129.268921,49.404255 
	C129.268921,49.404255 129.372040,49.782936 129.372040,49.782936 
z"/>
<path fill="#E98A8A" opacity="1.000000" stroke="none" 
	d="
M132.955566,47.052238 
	C131.148743,47.052238 129.341904,47.052238 127.046700,47.052238 
	C127.046700,52.278637 126.498367,57.563694 127.223000,62.668037 
	C127.786293,66.635948 126.442375,67.297150 123.199539,67.151314 
	C121.388802,67.069885 119.568924,67.191788 117.289955,67.218857 
	C116.885704,60.893166 116.944672,54.570690 116.996475,47.441288 
	C116.976372,44.820511 116.963448,43.006657 117.185173,41.188393 
	C117.419823,41.183979 117.863220,41.337997 117.863220,41.337997 
	C117.863220,49.374252 117.863220,57.410511 117.863220,65.668243 
	C120.997200,65.668243 123.227081,65.668243 126.240425,65.668243 
	C126.026894,60.858032 125.825439,56.319870 125.573181,51.111595 
	C125.486977,50.140362 125.347565,49.899292 125.104126,49.718273 
	C124.898857,43.759327 129.153168,45.309052 132.756439,45.889835 
	C132.995300,46.652508 132.975433,46.852371 132.955566,47.052238 
z"/>
<path fill="#DF7F7F" opacity="1.000000" stroke="none" 
	d="
M133.048676,47.369453 
	C132.975433,46.852371 132.995300,46.652508 133.038300,46.151657 
	C135.452332,50.320545 138.267059,54.622734 140.119843,59.305519 
	C142.139297,64.409584 145.138229,66.349396 150.800873,64.345695 
	C150.107574,62.257263 149.358826,60.001774 148.610062,57.746281 
	C149.027451,57.533073 149.444839,57.319862 149.862228,57.106651 
	C151.226959,59.255966 152.591675,61.405281 154.046005,64.331856 
	C150.312531,65.792984 146.489456,66.476860 142.666382,67.160736 
	C139.586624,61.506088 136.506882,55.851448 133.198425,49.922852 
	C133.027084,48.994820 133.084427,48.340744 133.048676,47.369453 
z"/>
<path fill="#2B1717" opacity="1.000000" stroke="none" 
	d="
M207.985474,28.831388 
	C207.438293,26.056568 207.445740,23.560221 211.850800,22.923990 
	C214.968506,23.006798 217.228470,23.006798 219.313843,23.006798 
	C219.968460,18.585375 220.545959,14.684755 221.123459,10.784136 
	C221.300491,10.866059 221.477539,10.947982 221.900055,11.558858 
	C222.519913,15.622378 222.894318,19.156946 223.268738,22.691511 
	C222.246613,23.501263 221.332214,24.745548 220.180161,25.031109 
	C217.715210,25.642097 215.127335,25.757248 211.989029,26.082684 
	C211.114929,26.213243 211.040222,26.411837 211.164154,26.685665 
	C211.022491,27.200344 210.880814,27.715023 210.381042,28.589676 
	C209.343781,28.910233 208.664627,28.870811 207.985474,28.831388 
z"/>
<path fill="#DF7A7A" opacity="1.000000" stroke="none" 
	d="
M242.031601,32.351734 
	C242.385056,35.625244 242.719849,39.357361 243.028244,43.999939 
	C243.028580,47.695896 243.024536,50.482082 243.087601,53.266750 
	C243.311157,63.137264 243.319839,63.137066 233.421173,63.028122 
	C233.145020,62.670639 232.868866,62.313160 232.746719,61.227421 
	C232.659470,56.674995 232.418198,52.850834 232.176910,49.026669 
	C232.209885,46.527409 232.242859,44.028145 232.624954,41.691799 
	C233.305649,43.242203 233.637222,44.629696 233.968781,46.017185 
	C233.968781,50.815052 233.968781,55.612923 233.968781,60.775997 
	C237.035843,60.775997 239.392426,60.775997 241.773026,60.775997 
	C241.773026,53.729073 241.773026,46.956093 241.804810,39.740158 
	C241.895386,37.134918 241.954163,34.972630 242.031601,32.351734 
z"/>
<path fill="#482323" opacity="1.000000" stroke="none" 
	d="
M56.761204,27.024960 
	C56.816109,26.568113 56.871010,26.111269 56.914070,24.965240 
	C57.275002,23.733734 57.647778,23.191412 58.020550,22.649088 
	C62.205936,26.616627 61.809746,31.625984 56.261002,37.607689 
	C54.113205,37.935265 52.567852,37.934399 51.022495,37.933537 
	C51.022495,37.933537 51.027771,38.001263 51.100384,37.649303 
	C51.494270,36.504196 51.815544,35.711044 52.136818,34.917896 
	C53.471439,33.659851 54.806065,32.401810 56.399292,30.575619 
	C56.692329,29.013302 56.726768,28.019131 56.761204,27.024960 
z"/>
<path fill="#120606" opacity="1.000000" stroke="none" 
	d="
M87.843979,52.919205 
	C87.891312,54.659683 87.938644,56.400162 88.057480,58.570358 
	C88.325806,62.047970 88.522614,65.095863 88.907532,68.504219 
	C87.508949,69.809364 86.013504,71.294395 84.315720,71.581047 
	C81.222649,72.103294 78.009537,71.914665 74.137924,71.707581 
	C71.942963,71.158653 70.456581,70.924767 68.970200,70.690887 
	C71.003456,69.969719 72.973656,70.111687 74.915894,69.938995 
	C78.517227,69.618797 82.102226,69.114754 85.694023,68.687271 
	C85.629715,63.175495 85.565399,57.663719 86.089134,52.087158 
	C87.066109,52.321320 87.455048,52.620262 87.843979,52.919205 
z"/>
<path fill="#E28585" opacity="1.000000" stroke="none" 
	d="
M208.960846,9.844166 
	C197.078171,12.506124 194.432358,15.951220 194.903351,27.705399 
	C193.995941,27.968845 193.597443,28.012575 193.023590,27.811840 
	C192.557556,27.292595 192.266861,27.017813 191.976151,26.743031 
	C192.314316,25.320269 192.796036,23.914543 192.967239,22.471966 
	C194.037704,13.451494 199.023010,8.710813 208.558441,8.453356 
	C208.966187,9.128934 208.963516,9.486550 208.960846,9.844166 
z"/>
<path fill="#050404" opacity="1.000000" stroke="none" 
	d="
M101.454903,34.438583 
	C100.687462,34.296833 99.206833,33.835930 99.105759,33.166683 
	C98.787979,31.062475 98.988754,28.879950 98.988754,25.997200 
	C101.451965,25.997200 103.899170,25.793341 106.299492,26.041950 
	C110.577957,26.485088 112.514519,24.936035 112.043015,20.477350 
	C111.872154,18.861595 112.334602,17.178867 112.508072,15.526698 
	C113.009506,15.545964 113.510948,15.565230 114.012383,15.584496 
	C114.012383,19.387442 114.012383,23.190386 113.964355,27.445900 
	C109.823509,27.898470 105.730698,27.898470 101.372993,27.898470 
	C101.372993,30.461960 101.372993,32.243027 101.454903,34.438583 
z"/>
<path fill="#E78888" opacity="1.000000" stroke="none" 
	d="
M84.782639,15.220472 
	C85.019958,15.875549 85.024826,16.134253 84.633682,16.813089 
	C84.083481,20.098427 83.907326,22.964045 83.333511,25.867493 
	C81.872726,25.866146 80.809608,25.826971 79.746483,25.787798 
	C85.193573,24.536814 82.416092,20.557768 82.873772,16.515713 
	C77.434845,16.515713 72.347992,16.515713 67.261147,16.515713 
	C67.272034,15.951703 67.282921,15.387692 67.293808,14.823683 
	C73.053261,14.823683 78.812714,14.823683 84.782639,15.220472 
z"/>
<path fill="#E18A8A" opacity="1.000000" stroke="none" 
	d="
M152.295868,42.042244 
	C152.379105,36.252514 152.754166,30.681156 153.106308,24.727306 
	C155.469223,20.833916 157.855057,17.323019 160.603180,13.907949 
	C154.659912,23.181437 154.309570,33.488659 155.154633,44.059055 
	C155.202774,44.661232 154.196564,45.347702 153.385788,45.911636 
	C152.922897,44.639095 152.755280,43.449856 152.295868,42.042244 
z"/>
<path fill="#CB6A6A" opacity="1.000000" stroke="none" 
	d="
M223.620499,22.727364 
	C222.894318,19.156946 222.519913,15.622378 222.152634,11.706608 
	C223.133972,10.571186 224.108185,9.816968 225.391052,9.338070 
	C225.483871,10.078390 225.268005,10.543390 225.052155,11.008393 
	C225.052170,13.557615 225.052170,16.106834 225.052170,18.622574 
	C227.778839,19.187044 230.035645,19.654240 232.276825,20.728029 
	C232.181107,21.924324 232.100983,22.514027 232.020874,23.103729 
	C229.337997,22.990225 226.655136,22.876720 223.620499,22.727364 
z"/>
<path fill="#120808" opacity="1.000000" stroke="none" 
	d="
M233.654846,63.369720 
	C243.319839,63.137066 243.311157,63.137264 243.087601,53.266750 
	C243.024536,50.482082 243.028580,47.695896 243.084686,44.452675 
	C243.604507,42.146317 244.041519,40.297684 244.753998,38.205570 
	C245.029465,46.541466 245.029465,55.120842 245.029465,64.429642 
	C241.887848,64.227081 237.888199,63.969200 233.654846,63.369720 
z"/>
<path fill="#FEF4F4" opacity="1.000000" stroke="none" 
	d="
M49.948254,49.923714 
	C49.953136,49.219761 49.958019,48.515804 49.877800,47.169907 
	C49.216110,46.023235 48.639530,45.518505 47.882172,44.615566 
	C44.049576,44.488125 40.397758,44.758896 36.745937,45.029667 
	C36.414768,44.119583 36.083599,43.209496 35.752434,42.299416 
	C39.416172,42.126358 43.251965,41.231453 46.679703,42.048492 
	C48.766350,42.545864 50.498207,45.518532 51.818691,47.721439 
	C52.296951,48.519299 51.114635,50.312550 50.357300,51.491310 
	C49.999134,50.861912 49.973694,50.392815 49.948254,49.923714 
z"/>
<path fill="#F09898" opacity="1.000000" stroke="none" 
	d="
M209.417755,9.892265 
	C208.963516,9.486550 208.966187,9.128934 208.959167,8.503735 
	C212.987595,8.824548 217.025696,9.412946 221.093628,10.392740 
	C220.545959,14.684755 219.968460,18.585375 219.313843,23.006798 
	C217.228470,23.006798 214.968506,23.006798 212.242920,22.922247 
	C213.890793,21.946419 216.004288,21.055143 218.527390,19.991140 
	C220.784958,11.240895 219.845047,10.045300 209.417755,9.892265 
z"/>
<path fill="#E99191" opacity="1.000000" stroke="none" 
	d="
M150.800568,20.652008 
	C150.500610,21.031445 150.153320,21.087015 149.252075,20.981932 
	C148.516678,20.724253 148.335220,20.627230 148.153763,20.530205 
	C144.377213,14.577559 138.533295,13.539998 131.642700,13.548795 
	C131.189697,12.906161 131.238998,12.511443 131.288300,12.116726 
	C139.276260,11.299002 146.402985,12.522801 150.800568,20.652008 
z"/>
<path fill="#DE7C7C" opacity="1.000000" stroke="none" 
	d="
M63.109966,17.470287 
	C66.896507,15.626678 64.906212,18.875641 65.008759,19.698378 
	C65.394867,22.795921 64.702393,26.374365 69.826370,26.021498 
	C69.674255,27.714582 69.542290,29.183386 69.392197,30.853949 
	C61.967377,28.889521 63.034073,23.147652 63.109966,17.470287 
z"/>
<path fill="#A33B3B" opacity="1.000000" stroke="none" 
	d="
M191.716278,26.761909 
	C192.266861,27.017813 192.557556,27.292595 192.997604,28.238863 
	C193.122772,30.878233 193.098618,32.846119 193.074463,34.814003 
	C192.728134,37.515827 192.498306,40.238934 192.009384,42.914700 
	C191.188248,47.408581 190.202271,51.872337 188.859894,56.673183 
	C188.434158,56.997597 187.946808,56.991890 187.946808,56.991890 
	C191.031021,48.959705 191.649933,40.678280 190.587143,32.192585 
	C190.394028,30.650839 190.693985,29.047342 190.858322,27.064468 
	C191.119003,26.697987 191.287704,26.739388 191.716278,26.761909 
z"/>
<path fill="#E58989" opacity="1.000000" stroke="none" 
	d="
M155.043488,50.531525 
	C155.679733,50.565456 156.688095,50.864277 156.853104,51.415543 
	C158.528992,57.014320 162.034821,61.109959 166.702942,64.542511 
	C166.053772,64.960403 165.619598,64.979088 165.185410,64.997772 
	C159.376266,62.050476 155.734283,57.539646 155.043488,50.531525 
z"/>
<path fill="#D77676" opacity="1.000000" stroke="none" 
	d="
M51.237839,38.206131 
	C52.567852,37.934399 54.113205,37.935265 56.039085,37.890110 
	C60.010605,40.986332 64.017296,43.860165 63.952568,49.811165 
	C64.094376,50.566257 63.974506,50.827084 63.092846,50.932880 
	C62.070858,50.762775 61.616146,50.658295 61.161430,50.553814 
	C62.229233,44.834335 59.515476,41.458973 51.237839,38.206131 
z"/>
<path fill="#4C2F2F" opacity="1.000000" stroke="none" 
	d="
M142.911224,67.487869 
	C146.489456,66.476860 150.312531,65.792984 154.091202,64.705582 
	C154.718597,65.514282 155.390396,66.726524 156.875610,69.406540 
	C151.484207,68.781113 147.320145,68.298065 142.911224,67.487869 
z"/>
<path fill="#623737" opacity="1.000000" stroke="none" 
	d="
M85.247787,68.701248 
	C82.102226,69.114754 78.517227,69.618797 74.915894,69.938995 
	C72.973656,70.111687 71.003456,69.969719 68.970200,70.690887 
	C70.456581,70.924767 71.942963,71.158653 73.671005,71.653999 
	C70.897675,72.615677 67.840767,73.471649 65.888611,69.461090 
	C72.114998,68.994728 78.458275,68.854973 85.247787,68.701248 
z"/>
<path fill="#E0DEDE" opacity="1.000000" stroke="none" 
	d="
M37.360443,34.210632 
	C36.584751,26.190670 37.491520,25.482071 45.816292,27.794394 
	C44.014648,29.989195 35.383030,27.477146 40.949856,34.781166 
	C39.882229,34.840733 38.791885,34.517597 37.360443,34.210632 
z"/>
<path fill="#EC9393" opacity="1.000000" stroke="none" 
	d="
M179.997253,11.707080 
	C176.376434,11.987679 172.623505,11.977262 168.333435,11.726141 
	C167.543869,11.078551 167.291428,10.671665 167.039001,10.264780 
	C171.483627,8.762989 175.724533,9.530802 179.997253,11.707080 
z"/>
<path fill="#993939" opacity="1.000000" stroke="none" 
	d="
M165.115891,65.285301 
	C165.619598,64.979088 166.053772,64.960403 166.804199,64.861984 
	C173.174652,65.089157 179.199661,65.253036 184.731018,61.187469 
	C182.424820,62.696419 179.932129,64.854362 177.054459,65.695953 
	C174.128525,66.551651 170.823212,66.110054 167.308929,66.416664 
	C166.304688,66.255463 165.675522,65.914146 165.115891,65.285301 
z"/>
<path fill="#D78080" opacity="1.000000" stroke="none" 
	d="
M208.101135,29.165752 
	C208.664627,28.870811 209.343781,28.910233 210.360916,28.991898 
	C213.597351,31.803394 216.495804,34.572647 219.208954,37.674347 
	C215.421371,35.171238 211.819077,32.335678 208.101135,29.165752 
z"/>
<path fill="#DE8585" opacity="1.000000" stroke="none" 
	d="
M116.950516,41.192802 
	C116.963448,43.006657 116.976372,44.820511 117.051361,46.981632 
	C116.494568,46.665562 115.382858,46.033157 115.338966,45.333740 
	C115.100800,41.538475 115.126350,37.726654 115.141388,33.460945 
	C115.621445,33.248051 116.021210,33.494755 116.633987,33.839188 
	C116.968666,35.061916 117.090309,36.186909 117.195747,38.092251 
	C117.103203,39.646000 117.026863,40.419399 116.950516,41.192802 
z"/>
<path fill="#FEF8F8" opacity="1.000000" stroke="none" 
	d="
M71.916122,33.772865 
	C71.975273,37.820782 71.975273,41.460949 71.975273,45.101120 
	C71.448769,45.107391 70.922272,45.113663 70.395767,45.119934 
	C70.395767,41.082085 70.395767,37.044239 70.395767,33.006393 
	C70.882835,33.125969 71.369896,33.245544 71.916122,33.772865 
z"/>
<path fill="#C17070" opacity="1.000000" stroke="none" 
	d="
M124.381142,25.194576 
	C124.466507,24.995581 124.551880,24.796587 125.085754,24.324097 
	C125.734161,24.075182 125.934052,24.099762 126.075409,24.573341 
	C126.075272,28.318602 126.054047,31.620703 126.295120,34.903545 
	C126.324493,35.303593 127.763542,35.600128 128.914551,35.968254 
	C130.486588,36.122108 131.693359,36.252346 132.913223,36.656296 
	C132.933243,37.294708 132.940140,37.659420 132.947052,38.024124 
	C132.443237,38.147327 131.939438,38.270531 130.748657,38.406929 
	C129.141541,38.516560 128.221390,38.612999 127.301254,38.709435 
	C123.031288,35.880581 125.830193,31.365387 124.671204,27.048527 
	C124.558006,25.937246 124.469574,25.565910 124.381142,25.194576 
z"/>
<path fill="#E47E7E" opacity="1.000000" stroke="none" 
	d="
M43.000324,16.977560 
	C40.701431,17.055080 38.402534,17.132601 35.462742,17.158136 
	C34.527077,17.122744 34.272507,17.232445 34.058132,17.435249 
	C33.598167,17.513643 33.138203,17.592037 32.132103,17.492390 
	C31.257652,17.330061 30.929335,17.345774 30.601017,17.361488 
	C31.126368,16.864237 31.651716,16.366983 32.697220,15.888681 
	C33.508629,15.875842 33.756523,15.755126 33.961048,15.545486 
	C36.653633,15.415672 39.346218,15.285859 42.503143,15.489334 
	C42.978428,16.207602 42.989376,16.592581 43.000324,16.977560 
z"/>
<path fill="#FFF9F9" opacity="1.000000" stroke="none" 
	d="
M232.013412,23.540159 
	C232.100983,22.514027 232.181107,21.924324 232.367966,21.055923 
	C233.166962,24.495394 233.859222,28.213560 234.551483,31.931726 
	C233.702972,32.010475 232.854462,32.089226 232.005951,32.167973 
	C232.005951,29.437511 232.005951,26.707050 232.013412,23.540159 
z"/>
<path fill="#FEF4F4" opacity="1.000000" stroke="none" 
	d="
M61.108761,51.019756 
	C61.616146,50.658295 62.070858,50.762775 62.864304,50.955215 
	C62.501064,54.389030 61.799095,57.734886 60.652050,61.474941 
	C59.807594,61.920536 59.408218,61.971931 59.008835,62.023327 
	C59.691254,58.510784 60.373672,54.998241 61.108761,51.019756 
z"/>
<path fill="#C55656" opacity="1.000000" stroke="none" 
	d="
M79.467896,25.847626 
	C80.809608,25.826971 81.872726,25.866146 83.116859,26.192087 
	C80.850182,26.670616 79.674210,27.585880 79.881386,30.439623 
	C80.186470,34.642143 79.887192,38.888542 79.845337,43.116249 
	C79.845337,43.116249 79.480530,43.001316 79.293854,42.959686 
	C78.996994,41.181202 78.886818,39.444351 78.752609,36.845970 
	C78.697006,32.667908 78.665428,29.351370 78.633858,26.034834 
	C78.819008,25.992374 79.004158,25.949913 79.467896,25.847626 
z"/>
<path fill="#E59C9C" opacity="1.000000" stroke="none" 
	d="
M43.343410,17.125156 
	C42.989376,16.592581 42.978428,16.207602 42.950562,15.534994 
	C45.166595,15.547309 47.399548,15.847253 49.500053,16.609596 
	C49.138065,17.255568 48.977974,17.487158 48.887329,17.766768 
	C47.153717,17.602095 45.420109,17.437424 43.343410,17.125156 
z"/>
<path fill="#D37C7C" opacity="1.000000" stroke="none" 
	d="
M126.133942,24.124340 
	C125.934052,24.099762 125.734161,24.075182 125.232422,24.034292 
	C128.543396,23.722172 132.156204,23.426357 135.945892,23.505169 
	C136.122742,23.879797 135.867996,24.158323 135.503723,24.088421 
	C132.137619,24.053791 129.135773,24.089066 126.133942,24.124340 
z"/>
<path fill="#180808" opacity="1.000000" stroke="none" 
	d="
M36.867527,45.416245 
	C40.397758,44.758896 44.049576,44.488125 47.533588,44.602581 
	C46.906975,45.048367 46.448170,45.108921 45.989365,45.169476 
	C44.925079,45.127583 43.860794,45.085690 42.029816,45.072193 
	C37.710934,45.665283 38.199966,48.535530 37.917183,50.965446 
	C37.607826,49.244572 37.298470,47.523693 36.867527,45.416245 
z"/>
<path fill="#FEF4F4" opacity="1.000000" stroke="none" 
	d="
M58.018097,22.307487 
	C57.647778,23.191412 57.275002,23.733734 56.831463,24.627621 
	C55.680199,22.771385 54.599705,20.563587 53.519211,18.355789 
	C54.027573,18.037817 54.535934,17.719847 55.044292,17.401875 
	C56.034744,18.923212 57.025192,20.444548 58.018097,22.307487 
z"/>
<path fill="#F0EEEE" opacity="1.000000" stroke="none" 
	d="
M38.272068,50.938782 
	C38.199966,48.535530 37.710934,45.665283 41.638050,45.156136 
	C40.884300,47.111828 39.755627,49.011971 38.272068,50.938782 
z"/>
<path fill="#DE8D8D" opacity="1.000000" stroke="none" 
	d="
M232.106384,49.477348 
	C232.418198,52.850834 232.659470,56.674995 232.839005,60.992722 
	C232.530136,57.633530 232.283005,53.780781 232.106384,49.477348 
z"/>
<path fill="#FEF6F6" opacity="1.000000" stroke="none" 
	d="
M144.021820,50.397804 
	C144.499603,50.330036 144.965729,50.627632 145.714951,50.958305 
	C146.562195,52.404842 147.126312,53.818306 147.690430,55.231770 
	C147.269730,55.474171 146.849014,55.716572 146.428314,55.958973 
	C145.622253,54.227036 144.816208,52.495102 144.021820,50.397804 
z"/>
<path fill="#FFF9F9" opacity="1.000000" stroke="none" 
	d="
M234.246979,45.772354 
	C233.637222,44.629696 233.305649,43.242203 232.961365,41.472504 
	C235.286057,40.970108 235.371048,41.209335 234.246979,45.772354 
z"/>
<path fill="#E18A8A" opacity="1.000000" stroke="none" 
	d="
M166.690491,10.237608 
	C167.291428,10.671665 167.543869,11.078551 167.882553,11.709332 
	C165.874680,12.738317 163.780548,13.543406 161.348907,14.157495 
	C162.788254,12.714477 164.565109,11.462456 166.690491,10.237608 
z"/>
<path fill="#FEF8F8" opacity="1.000000" stroke="none" 
	d="
M78.432693,26.367138 
	C78.665428,29.351370 78.697006,32.667908 78.642891,36.423546 
	C78.448647,33.474915 78.340096,30.087177 78.432693,26.367138 
z"/>
<path fill="#FEF6F6" opacity="1.000000" stroke="none" 
	d="
M130.864685,12.076097 
	C131.238998,12.511443 131.189697,12.906161 131.214508,13.592067 
	C129.739304,13.883255 128.189957,13.883255 126.640617,13.883255 
	C126.584976,13.434190 126.529335,12.985124 126.473694,12.536058 
	C127.796158,12.369196 129.118622,12.202332 130.864685,12.076097 
z"/>
<path fill="#F0EEEE" opacity="1.000000" stroke="none" 
	d="
M49.607666,49.976692 
	C49.973694,50.392815 49.999134,50.861912 50.043320,51.682816 
	C49.927822,52.347481 49.725761,52.607674 48.979065,52.918568 
	C48.330757,53.021385 48.159271,53.020828 47.987782,53.020275 
	C47.987782,53.020275 47.496094,53.005589 46.989853,53.001060 
	C46.310135,52.993641 46.136658,52.990757 45.963181,52.987869 
	C47.064480,52.001804 48.165779,51.015739 49.607666,49.976692 
z"/>
<path fill="#D37C7C" opacity="1.000000" stroke="none" 
	d="
M137.463638,24.478319 
	C138.163528,25.741240 138.863403,27.004158 139.261566,28.611698 
	C138.619019,28.974224 138.278183,28.992134 137.830658,28.767405 
	C137.478577,27.874525 137.233185,27.224287 136.941269,26.195797 
	C136.905823,25.563721 136.916901,25.309895 137.066650,24.916042 
	C137.205322,24.776016 137.463638,24.478319 137.463638,24.478319 
z"/>
<path fill="#FEF4F4" opacity="1.000000" stroke="none" 
	d="
M37.426983,54.434731 
	C36.514442,54.252777 35.851738,53.824718 35.189034,53.396664 
	C35.602795,52.991104 36.016552,52.585545 36.430313,52.179985 
	C36.845814,52.849533 37.261318,53.519077 37.426983,54.434731 
z"/>
<path fill="#FEF4F4" opacity="1.000000" stroke="none" 
	d="
M28.224476,46.808708 
	C27.644724,45.921032 27.333727,44.821316 27.088219,43.356674 
	C27.600216,44.193386 28.046724,45.395031 28.224476,46.808708 
z"/>
<path fill="#D37C7C" opacity="1.000000" stroke="none" 
	d="
M139.234772,31.973709 
	C138.770462,33.230343 138.306152,34.486977 137.039429,35.834778 
	C135.885376,35.832752 135.533737,35.739555 135.449524,35.428207 
	C136.436432,34.122375 137.155884,33.034695 138.215210,31.953091 
	C138.781647,31.964018 139.008209,31.968863 139.234772,31.973709 
z"/>
<path fill="#FFF9F9" opacity="1.000000" stroke="none" 
	d="
M225.429230,11.005243 
	C225.268005,10.543390 225.483871,10.078390 225.735504,9.347836 
	C226.603256,9.048184 227.435257,9.014090 228.683823,8.957886 
	C229.100403,8.935777 229.006393,8.993156 229.039490,8.948198 
	C227.983826,9.602859 226.895065,10.302477 225.429230,11.005243 
z"/>
<path fill="#D78080" opacity="1.000000" stroke="none" 
	d="
M222.014679,41.127304 
	C221.011200,40.587906 219.996826,39.639881 218.989487,38.333820 
	C219.998947,38.890083 221.001373,39.804382 222.014679,41.127304 
z"/>
<path fill="#DE8585" opacity="1.000000" stroke="none" 
	d="
M119.331665,13.977654 
	C118.985001,13.938848 118.990067,13.458509 118.990974,13.218335 
	C120.114487,12.626280 121.237099,12.274398 122.704819,12.160633 
	C123.009041,12.590193 122.968140,12.781636 122.927231,12.973081 
	C121.844269,13.320873 120.761299,13.668666 119.331665,13.977654 
z"/>
<path fill="#E88E8E" opacity="1.000000" stroke="none" 
	d="
M135.182083,35.646355 
	C135.533737,35.739555 135.885376,35.832752 136.769897,36.047356 
	C136.089630,36.803074 134.876511,37.437393 133.305206,38.047920 
	C132.940140,37.659420 132.933243,37.294708 133.191772,36.532661 
	C134.032166,35.972332 134.607117,35.809341 135.182083,35.646355 
z"/>
<path fill="#F0EEEE" opacity="1.000000" stroke="none" 
	d="
M46.071121,45.510525 
	C46.448170,45.108921 46.906975,45.048367 47.714363,45.000793 
	C48.639530,45.518505 49.216110,46.023235 49.860554,46.818260 
	C48.669903,46.689564 47.411392,46.270569 46.071121,45.510525 
z"/>
<path fill="#FEF4F4" opacity="1.000000" stroke="none" 
	d="
M27.237785,27.818230 
	C26.669022,27.228838 26.353481,26.449678 26.100084,25.330681 
	C26.605154,25.870050 27.048082,26.749256 27.237785,27.818230 
z"/>
<path fill="#FEF4F4" opacity="1.000000" stroke="none" 
	d="
M42.003433,53.993023 
	C41.461243,54.603626 40.919052,55.214230 40.376862,55.824837 
	C40.081478,55.543606 39.786087,55.262375 39.490696,54.981148 
	C40.101398,54.657520 40.712101,54.333893 41.661385,54.005157 
	C41.999962,54.000050 42.003437,53.993023 42.003433,53.993023 
z"/>
<path fill="#D77676" opacity="1.000000" stroke="none" 
	d="
M51.803169,34.868633 
	C51.815544,35.711044 51.494270,36.504196 51.120487,37.621925 
	C50.573238,37.479412 50.078499,37.012318 49.583763,36.545219 
	C50.212345,35.969936 50.840931,35.394653 51.803169,34.868633 
z"/>
<path fill="#E88E8E" opacity="1.000000" stroke="none" 
	d="
M139.368195,31.680336 
	C139.008209,31.968863 138.781647,31.964018 138.208496,31.585985 
	C137.887054,30.478546 137.912201,29.744295 137.937347,29.010044 
	C138.278183,28.992134 138.619019,28.974224 139.211945,28.925089 
	C139.476578,29.724895 139.489105,30.555931 139.368195,31.680336 
z"/>
<path fill="#FEF4F4" opacity="1.000000" stroke="none" 
	d="
M45.716850,53.092049 
	C46.136658,52.990757 46.310135,52.993641 46.743904,52.999016 
	C46.133888,53.519176 45.263577,54.036858 44.201366,54.281998 
	C44.009472,54.009457 44.064125,53.966873 44.064125,53.966873 
	C44.532925,53.709988 45.001724,53.453106 45.716850,53.092049 
z"/>
<path fill="#E28585" opacity="1.000000" stroke="none" 
	d="
M92.685608,14.000053 
	C93.022034,14.433455 93.026207,14.817099 93.036400,15.488228 
	C92.268799,15.578259 91.495163,15.380805 90.426605,15.075236 
	C90.872231,14.628180 91.612793,14.289238 92.685608,14.000053 
z"/>
<path fill="#E0DEDE" opacity="1.000000" stroke="none" 
	d="
M44.246086,33.968567 
	C43.890781,33.492386 43.777443,33.007477 43.664101,32.522572 
	C44.078674,32.816204 44.493248,33.109833 44.940044,33.679668 
	C44.972267,33.955872 44.488049,33.959846 44.246086,33.968567 
z"/>
<path fill="#FEF6F6" opacity="1.000000" stroke="none" 
	d="
M127.530869,38.810417 
	C128.221390,38.612999 129.141541,38.516560 130.386719,38.549301 
	C129.727997,38.756119 128.744232,38.833759 127.530869,38.810417 
z"/>
<path fill="#FEF6F6" opacity="1.000000" stroke="none" 
	d="
M123.215019,12.954549 
	C122.968140,12.781636 123.009041,12.590193 123.074387,12.105349 
	C123.587944,11.793023 124.077057,11.774099 124.566162,11.755175 
	C124.211708,12.148788 123.857254,12.542402 123.215019,12.954549 
z"/>
<path fill="#FEF4F4" opacity="1.000000" stroke="none" 
	d="
M49.041985,18.023178 
	C48.977974,17.487158 49.138065,17.255568 49.556900,16.976242 
	C50.049625,17.324308 50.353054,17.768133 50.656487,18.211958 
	C50.169868,18.234501 49.683254,18.257044 49.041985,18.023178 
z"/>
<path fill="#F0EEEE" opacity="1.000000" stroke="none" 
	d="
M42.003578,53.998310 
	C42.240616,53.474197 42.474030,52.951824 42.707443,52.429447 
	C43.123470,52.743484 43.539501,53.057522 44.009827,53.669216 
	C44.064125,53.966873 44.009472,54.009457 43.988106,54.037807 
	C43.530674,54.046520 43.094608,54.026882 42.330986,54.000134 
	C42.003437,53.993023 41.999962,54.000050 42.003578,53.998310 
z"/>
<path fill="#FEF6F6" opacity="1.000000" stroke="none" 
	d="
M117.185165,41.188393 
	C117.026863,40.419399 117.103203,39.646000 117.292030,38.505402 
	C117.587334,38.975605 117.770149,39.813004 117.908096,40.994202 
	C117.863220,41.337997 117.419823,41.183979 117.185165,41.188393 
z"/>
<path fill="#E47E7E" opacity="1.000000" stroke="none" 
	d="
M58.949768,62.332748 
	C59.408218,61.971931 59.807594,61.920536 60.507889,61.836609 
	C60.359528,62.442024 59.910255,63.079975 59.148476,63.793251 
	C58.854210,63.459766 58.872452,63.050968 58.949768,62.332748 
z"/>
<path fill="#FEF4F4" opacity="1.000000" stroke="none" 
	d="
M56.529442,27.308041 
	C56.726768,28.019131 56.692329,29.013302 56.370728,30.260281 
	C56.154938,29.539101 56.226311,28.565113 56.529442,27.308041 
z"/>
<path fill="#FEF6F6" opacity="1.000000" stroke="none" 
	d="
M124.276489,25.349941 
	C124.469574,25.565910 124.558006,25.937246 124.572098,26.589790 
	C124.389114,26.415770 124.280472,25.960537 124.276489,25.349941 
z"/>
<path fill="#E59C9C" opacity="1.000000" stroke="none" 
	d="
M34.266338,17.517265 
	C34.272507,17.232445 34.527077,17.122744 35.034546,17.140020 
	C35.048611,17.422892 34.791042,17.564690 34.266338,17.517265 
z"/>
<path fill="#E59C9C" opacity="1.000000" stroke="none" 
	d="
M30.798653,17.520412 
	C30.929335,17.345774 31.257652,17.330061 31.781742,17.471291 
	C31.650440,17.645267 31.323364,17.662302 30.798653,17.520412 
z"/>
<path fill="#E47E7E" opacity="1.000000" stroke="none" 
	d="
M56.616920,65.851929 
	C56.720966,66.158829 56.543087,66.448723 56.095795,66.737503 
	C55.995918,66.435898 56.165459,66.135406 56.616920,65.851929 
z"/>
<path fill="#E47E7E" opacity="1.000000" stroke="none" 
	d="
M57.619884,64.911850 
	C57.743496,65.203819 57.585609,65.511650 57.155212,65.851898 
	C57.034595,65.565453 57.186489,65.246590 57.619884,64.911850 
z"/>
<path fill="#E47E7E" opacity="1.000000" stroke="none" 
	d="
M58.552322,63.884666 
	C58.702084,64.182487 58.565426,64.496468 58.159645,64.858360 
	C58.015652,64.571121 58.140781,64.235985 58.552322,63.884666 
z"/>
<path fill="#FEF4F4" opacity="1.000000" stroke="none" 
	d="
M26.642448,18.859486 
	C26.581682,18.908577 26.449173,18.649994 26.449173,18.649994 
	C26.449173,18.649994 26.651903,18.442646 26.780937,18.510635 
	C26.909971,18.578625 26.703215,18.810392 26.642448,18.859486 
z"/>
<path fill="#DF7F7F" opacity="1.000000" stroke="none" 
	d="
M129.581421,49.831753 
	C129.372040,49.782936 129.268921,49.404255 129.268921,49.404255 
	C129.268921,49.404255 129.672226,49.212666 129.768723,49.334846 
	C129.865219,49.457031 129.790817,49.880569 129.581421,49.831753 
z"/>
<path fill="#D78080" opacity="1.000000" stroke="none" 
	d="
M211.310364,26.689075 
	C211.040222,26.411837 211.114929,26.213243 211.553497,26.144936 
	C211.732239,26.417980 211.644852,26.582146 211.310364,26.689075 
z"/>
<path fill="#FEF6F6" opacity="1.000000" stroke="none" 
	d="
M149.114319,23.134624 
	C149.339233,23.099722 149.618118,23.284939 149.853882,23.720432 
	C149.516449,23.848940 149.302307,23.643618 149.114319,23.134624 
z"/>
<path fill="#D37C7C" opacity="1.000000" stroke="none" 
	d="
M136.251892,23.742172 
	C136.700974,23.682867 136.973862,23.841896 137.331665,24.279976 
	C137.463638,24.478319 137.205322,24.776016 136.850525,24.818916 
	C136.236511,24.671917 136.027267,24.437418 135.867996,24.158323 
	C135.867996,24.158323 136.122742,23.879797 136.251892,23.742172 
z"/>
<path fill="#E59C9C" opacity="1.000000" stroke="none" 
	d="
M33.749706,15.472215 
	C33.756523,15.755126 33.508629,15.875842 33.004829,15.886523 
	C32.974079,15.602766 33.222771,15.447276 33.749706,15.472215 
z"/>
<path fill="#FEF4F4" opacity="1.000000" stroke="none" 
	d="
M48.079521,53.183517 
	C48.159271,53.020828 48.330757,53.021385 48.759197,53.035774 
	C48.734516,53.148659 48.452888,53.247711 48.079521,53.183517 
z"/>
<path fill="#FEF6F6" opacity="1.000000" stroke="none" 
	d="
M125.098923,49.922173 
	C125.347565,49.899292 125.486977,50.140362 125.470726,50.645920 
	C125.235382,50.642792 125.126930,50.401363 125.098923,49.922173 
z"/>
<path fill="#FEF6F6" opacity="1.000000" stroke="none" 
	d="
M148.162964,20.817059 
	C148.335220,20.627230 148.516678,20.724253 148.992386,20.915283 
	C149.197678,21.166985 149.108719,21.324677 148.928223,21.738064 
	C148.615173,21.697145 148.393677,21.400530 148.162964,20.817059 
z"/>
<path fill="#F9F8F8" opacity="1.000000" stroke="none" 
	d="
M165.982681,44.466965 
	C165.982681,44.466965 166.035812,44.344818 166.075974,43.804775 
	C166.096832,40.644165 165.901596,38.010498 166.095490,35.405800 
	C166.478607,30.259298 168.757309,25.192051 175.275497,25.196659 
	C176.945007,27.199020 179.335632,28.680361 179.774933,30.606697 
	C180.532196,33.927307 180.075531,37.524750 180.082703,41.376465 
	C177.334412,49.245636 173.420547,50.003117 165.982681,44.466965 
z"/>
<path fill="#260909" opacity="1.000000" stroke="none" 
	d="
M175.118515,24.875887 
	C168.757309,25.192051 166.478607,30.259298 166.095490,35.405800 
	C165.901596,38.010498 166.096832,40.644165 166.080276,43.738316 
	C161.474091,39.102070 162.690002,33.383980 164.548843,27.758427 
	C166.252701,22.601849 170.596863,22.506735 175.410019,23.258949 
	C175.562927,24.013277 175.340729,24.444582 175.118515,24.875887 
z"/>
<path fill="#E68383" opacity="1.000000" stroke="none" 
	d="
M165.906433,44.882484 
	C173.420547,50.003117 177.334412,49.245636 180.316956,41.491669 
	C181.054581,41.482735 181.512436,41.729027 181.970291,41.975323 
	C179.703644,49.314777 174.646194,52.269913 169.064804,49.235733 
	C167.681778,48.483883 166.892441,46.639938 165.906433,44.882484 
z"/>
<path fill="#D58080" opacity="1.000000" stroke="none" 
	d="
M182.049469,41.521690 
	C181.512436,41.729027 181.054581,41.482735 180.362488,41.121235 
	C180.075531,37.524750 180.532196,33.927307 179.774933,30.606697 
	C179.335632,28.680361 176.945007,27.199020 175.275497,25.196659 
	C175.340729,24.444582 175.562927,24.013277 175.838226,23.325836 
	C179.735519,24.068727 181.983887,27.670116 182.087234,33.077526 
	C182.138153,35.740330 182.117111,38.404507 182.049469,41.521690 
z"/>
<path fill="#993939" opacity="1.000000" stroke="none" 
	d="
M187.728973,57.190807 
	C187.946808,56.991890 188.434158,56.997597 188.677582,56.996368 
	C188.494476,57.668392 188.067947,58.341644 187.328552,59.007809 
	C187.180832,58.463722 187.345978,57.926723 187.728973,57.190807 
z"/>
<path fill="#993939" opacity="1.000000" stroke="none" 
	d="
M185.803543,60.130562 
	C185.946472,60.427864 185.824524,60.757641 185.414459,61.084198 
	C185.263794,60.775002 185.401245,60.469021 185.803543,60.130562 
z"/>
<path fill="#993939" opacity="1.000000" stroke="none" 
	d="
M186.728577,59.047245 
	C186.893875,59.354088 186.785065,59.691669 186.389572,60.043221 
	C186.220093,59.730793 186.337296,59.404388 186.728577,59.047245 
z"/>
<path fill="#EA9090" opacity="1.000000" stroke="none" 
	d="
M202.225739,49.451031 
	C201.980713,48.837906 202.125107,48.544182 202.582733,48.181343 
	C205.395935,47.419846 209.467651,49.853821 210.044724,44.172775 
	C210.277496,43.353764 210.357010,43.029858 210.436508,42.705952 
	C212.889587,46.212013 212.126740,49.105091 208.313553,49.844296 
	C206.458939,50.203819 204.453888,49.787289 202.225739,49.451031 
z"/>
<path fill="#F5F3F3" opacity="1.000000" stroke="none" 
	d="
M193.359314,34.872498 
	C193.098618,32.846119 193.122772,30.878233 193.172943,28.483326 
	C193.597443,28.012575 193.995941,27.968845 194.691879,27.970531 
	C195.887222,29.663097 196.785156,31.310246 197.706161,32.999722 
	C196.692520,33.532509 195.680283,34.064548 194.446716,34.753532 
	C194.031647,34.917309 193.837891,34.924152 193.359314,34.872498 
z"/>
<path fill="#F5F3F3" opacity="1.000000" stroke="none" 
	d="
M202.404388,39.668961 
	C200.837723,38.715885 199.563782,37.949715 198.289841,37.183540 
	C198.752258,36.615974 199.214661,36.048409 199.677078,35.480843 
	C202.179932,36.856194 204.682770,38.231544 207.185623,39.606895 
	C207.137558,40.095272 207.089508,40.583645 207.041443,41.072021 
	C205.593323,40.666634 204.145218,40.261246 202.404388,39.668961 
z"/>
<path fill="#F5F3F3" opacity="1.000000" stroke="none" 
	d="
M210.263321,42.653549 
	C210.357010,43.029858 210.277496,43.353764 209.938812,43.779629 
	C209.539810,43.486862 209.399994,43.092136 209.260178,42.697407 
	C209.536835,42.665318 209.813477,42.633232 210.263321,42.653549 
z"/>
<path fill="#D66F6F" opacity="1.000000" stroke="none" 
	d="
M95.335785,15.880982 
	C95.329247,15.345921 95.650894,14.875610 95.972542,14.405302 
	C96.285133,14.700579 96.597725,14.995855 96.951958,15.569657 
	C96.550392,15.880699 96.107178,15.913217 95.335785,15.880982 
z"/>
<path fill="#E0DEDE" opacity="1.000000" stroke="none" 
	d="
M45.739830,30.616192 
	C45.863838,30.461823 46.080505,30.440712 46.297176,30.419603 
	C46.142281,30.529552 45.987389,30.639503 45.739830,30.616192 
z"/>
<path fill="#EFEFEF" opacity="1.000000" stroke="none" 
	d="
M87.999115,52.564484 
	C87.455048,52.620262 87.066109,52.321320 86.456451,51.902164 
	C85.145004,51.113155 84.054276,50.444359 82.530045,49.366898 
	C82.096527,42.560246 82.096527,36.162266 82.096527,29.610535 
	C84.028954,29.304857 85.462334,29.078121 86.895714,28.851383 
	C87.290230,30.344816 87.990013,31.830917 88.026077,33.332958 
	C88.177155,39.622623 88.129257,45.917065 87.999115,52.564484 
z"/>
<path fill="#110C0C" opacity="1.000000" stroke="none" 
	d="
M86.926285,28.422173 
	C85.462334,29.078121 84.028954,29.304857 82.096527,29.610535 
	C82.096527,36.162266 82.096527,42.560246 82.161255,49.412514 
	C81.492790,49.544357 80.202866,49.319759 80.125938,48.881989 
	C79.842392,47.268566 79.960487,45.584564 79.886429,43.521675 
	C79.887192,38.888542 80.186470,34.642143 79.881386,30.439623 
	C79.674210,27.585880 80.850182,26.670616 83.514519,26.154259 
	C83.907326,22.964045 84.083481,20.098427 84.629623,17.009544 
	C85.652023,20.521839 86.304443,24.257399 86.926285,28.422173 
z"/>
<path fill="#F7F5F5" opacity="1.000000" stroke="none" 
	d="
M137.830658,28.767403 
	C137.912201,29.744295 137.887054,30.478546 137.868622,31.579905 
	C137.155884,33.034695 136.436432,34.122375 135.449524,35.428207 
	C134.607117,35.809341 134.032166,35.972332 133.178650,36.258957 
	C131.693359,36.252346 130.486588,36.122108 128.934052,35.526691 
	C128.121597,25.357908 128.260788,25.217264 136.987793,26.574047 
	C137.233185,27.224287 137.478577,27.874525 137.830658,28.767403 
z"/>
<path fill="#331111" opacity="1.000000" stroke="none" 
	d="
M136.941269,26.195797 
	C128.260788,25.217264 128.121597,25.357908 128.568787,35.503075 
	C127.763542,35.600128 126.324493,35.303593 126.295120,34.903545 
	C126.054047,31.620703 126.075272,28.318602 126.075409,24.573341 
	C129.135773,24.089066 132.137619,24.053791 135.503723,24.088421 
	C136.027267,24.437418 136.236511,24.671917 136.711853,24.958942 
	C136.916901,25.309895 136.905823,25.563721 136.941269,26.195797 
z"/>
</svg>