<svg width="375.6691162109375px" height="120.8px" xmlns="http://www.w3.org/2000/svg" viewBox="62.165441894531256 14.600000000000001 375.6691162109375 120.8" style="background: rgba(0, 0, 0, 0);" preserveAspectRatio="xMidYMid"><defs><filter id="editing-offset"><feFlood flood-color="#f00" flood-opacity="0.5" result="c1"></feFlood><feFlood flood-color="#0f0" flood-opacity="0.5" result="c2"></feFlood><feFlood flood-color="#00f" flood-opacity="0.5" result="c3"></feFlood><feComposite operator="in" in="c1" in2="SourceAlpha" result="text-c1"></feComposite><feComposite operator="in" in="c2" in2="SourceAlpha" result="text-c2"></feComposite><feComposite operator="in" in="c3" in2="SourceAlpha" result="text-c3"></feComposite><feOffset in="text-c1" dx="-10" dy="0" result="text1"></feOffset><feOffset in="text-c2" dx="10" dy="0" result="text2"></feOffset><feOffset in="text-c3" dx="0" dy="0" result="text3"></feOffset><feMerge><feMergeNode in="text1"></feMergeNode><feMergeNode in="text2"></feMergeNode><feMergeNode in="text3"></feMergeNode></feMerge></filter></defs><g filter="url(#editing-offset)"><g transform="translate(120.99223783612251, 97.46500015258789)"><path d="M0.45-0.32L0.45-0.32L8.51-42.24L8.51-42.24Q16.06-42.88 20.93-42.88L20.93-42.88L20.93-42.88Q25.79-42.88 28.93-42.46L28.93-42.46L28.93-42.46Q32.06-42.05 34.18-40.96L34.18-40.96L34.18-40.96Q38.40-38.91 38.40-33.28L38.40-33.28L38.40-33.28Q38.40-30.02 35.58-27.26L35.58-27.26L35.58-27.26Q32.96-24.77 30.08-24.19L30.08-24.19L30.08-24.19Q33.15-23.68 35.33-21.38L35.33-21.38L35.33-21.38Q37.63-18.94 37.63-15.17L37.63-15.17L37.63-15.17Q37.63-7.87 32.19-3.62L32.19-3.62L32.19-3.62Q26.75 0.64 16.06 0.64L16.06 0.64L16.06 0.64Q8.70 0.64 0.45-0.32ZM17.86-20.61L14.66-4.03L14.66-4.03Q15.23-3.97 15.36-3.97L15.36-3.97L15.94-3.97L15.94-3.97Q21.18-3.97 23.42-7.42L23.42-7.42L23.42-7.42Q25.09-10.11 25.09-15.04L25.09-15.04L25.09-15.04Q25.09-17.66 23.39-19.07L23.39-19.07L23.39-19.07Q21.70-20.48 17.86-20.61L17.86-20.61ZM27.58-33.22L27.58-33.22L27.58-33.22Q27.58-38.53 22.46-38.53L22.46-38.53L21.89-38.53L21.89-38.53Q21.63-38.53 21.25-38.46L21.25-38.46L18.69-24.96L19.33-24.96L19.33-24.96Q27.58-25.15 27.58-33.22ZM55.10 0L41.15 0L49.28-42.24L63.36-42.24L55.10 0ZM93.89-33.92L93.89-33.92L93.89-33.92Q88.70-33.92 84.93-35.65L84.93-35.65L82.88-25.28L95.23-25.28L95.23-25.28Q95.23-21.89 93.54-19.74L93.54-19.74L93.54-19.74Q91.84-17.60 88.77-17.60L88.77-17.60L88.77-17.60Q85.44-17.60 82.37-18.82L82.37-18.82L82.37-18.82Q81.73-19.07 81.66-19.14L81.66-19.14L78.02 0L64.06 0L72.19-42.24L100.74-42.24L100.74-42.24Q100.74-38.34 98.91-36.13L98.91-36.13L98.91-36.13Q97.09-33.92 93.89-33.92ZM112.26 0L98.56 0L106.37-42.05L106.37-42.05Q112.70-42.75 121.95-42.75L121.95-42.75L121.95-42.75Q131.20-42.75 135.49-40.06L135.49-40.06L135.49-40.06Q139.78-37.38 139.78-31.97L139.78-31.97L139.78-31.97Q139.78-26.56 136.99-23.17L136.99-23.17L136.99-23.17Q134.21-19.78 129.41-18.69L129.41-18.69L129.41-18.69Q130.50-13.38 132.99-9.09L132.99-9.09L132.99-9.09Q135.30-5.06 137.98-3.78L137.98-3.78L137.98-3.78Q137.02-1.09 135.07 0.10L135.07 0.10L135.07 0.10Q133.12 1.28 130.34 1.28L130.34 1.28L130.34 1.28Q127.55 1.28 125.38-0.35L125.38-0.35L125.38-0.35Q123.20-1.98 121.47-4.99L121.47-4.99L121.47-4.99Q117.82-11.52 117.44-21.82L117.44-21.82L117.89-21.82L117.89-21.82Q122.62-21.95 124.99-24.42L124.99-24.42L124.99-24.42Q127.36-26.88 127.36-32.06L127.36-32.06L127.36-32.06Q127.36-38.53 121.92-38.78L121.92-38.78L120.51-38.78L120.51-38.78Q119.94-38.78 119.62-38.72L119.62-38.72L112.26 0ZM143.68-15.62L143.68-15.62L143.68-15.62Q143.68-27.71 149.95-35.33L149.95-35.33L149.95-35.33Q156.61-43.58 168.19-43.58L168.19-43.58L168.19-43.58Q176.58-43.58 180.80-39.52L180.80-39.52L180.80-39.52Q185.02-35.46 185.02-26.88L185.02-26.88L185.02-26.88Q185.02-13.82 178.37-6.21L178.37-6.21L178.37-6.21Q171.78 1.28 160.70 1.28L160.70 1.28L160.70 1.28Q152.06 1.28 147.87-3.04L147.87-3.04L147.87-3.04Q143.68-7.36 143.68-15.62ZM160.51-28.86L160.51-28.86L160.51-28.86Q157.63-17.34 157.63-8.26L157.63-8.26L157.63-8.26Q157.63-6.08 158.37-4.67L158.37-4.67L158.37-4.67Q159.10-3.26 161.06-3.26L161.06-3.26L161.06-3.26Q163.01-3.26 164.22-4.19L164.22-4.19L164.22-4.19Q165.44-5.12 166.40-7.23L166.40-7.23L166.40-7.23Q167.94-10.69 169.38-18.02L169.38-18.02L169.38-18.02Q170.82-25.34 170.94-28.38L170.94-28.38L170.94-28.38Q171.07-31.42 171.07-33.73L171.07-33.73L171.07-33.73Q171.07-36.03 170.37-37.50L170.37-37.50L170.37-37.50Q169.66-38.98 167.78-38.98L167.78-38.98L167.78-38.98Q165.89-38.98 164.61-37.82L164.61-37.82L164.61-37.82Q162.24-35.65 160.51-28.86ZM213.12-29.57L213.12-29.57L213.12-29.57Q214.08-31.49 214.08-33.28L214.08-33.28L214.08-33.28Q214.08-35.07 213.89-36.06L213.89-36.06L213.89-36.06Q213.70-37.06 213.25-37.82L213.25-37.82L213.25-37.82Q212.29-39.49 210.37-39.49L210.37-39.49L210.37-39.49Q208-39.49 206.08-37.76L206.08-37.76L206.08-37.76Q204.03-35.97 204.03-33.15L204.03-33.15L204.03-33.15Q204.03-31.36 205.28-29.98L205.28-29.98L205.28-29.98Q206.53-28.61 208.45-27.33L208.45-27.33L208.45-27.33Q210.37-26.05 212.54-24.77L212.54-24.77L212.54-24.77Q214.72-23.49 216.64-21.95L216.64-21.95L216.64-21.95Q221.06-18.43 221.06-13.70L221.06-13.70L221.06-13.70Q221.06-10.50 219.36-7.78L219.36-7.78L219.36-7.78Q217.66-5.06 214.85-3.07L214.85-3.07L214.85-3.07Q208.70 1.28 200.58 1.28L200.58 1.28L200.58 1.28Q193.98 1.28 190.59-0.86L190.59-0.86L190.59-0.86Q187.20-3.01 187.20-6.27L187.20-6.27L187.20-6.27Q187.20-12.10 191.74-13.57L191.74-13.57L191.74-13.57Q193.02-14.02 194.98-14.02L194.98-14.02L194.98-14.02Q196.93-14.02 199.17-13.18L199.17-13.18L199.17-13.18Q198.14-10.56 198.14-8.19L198.14-8.19L198.14-8.19Q198.14-3.07 201.79-3.07L201.79-3.07L201.79-3.07Q204.16-3.07 206.11-4.80L206.11-4.80L206.11-4.80Q208.06-6.53 208.06-8.48L208.06-8.48L208.06-8.48Q208.06-10.43 206.82-11.84L206.82-11.84L206.82-11.84Q205.57-13.25 203.71-14.37L203.71-14.37L203.71-14.37Q201.86-15.49 199.71-16.58L199.71-16.58L199.71-16.58Q197.57-17.66 195.71-19.20L195.71-19.20L195.71-19.20Q191.36-22.72 191.36-28.35L191.36-28.35L191.36-28.35Q191.36-32 193.15-34.85L193.15-34.85L193.15-34.85Q194.94-37.70 197.82-39.62L197.82-39.62L197.82-39.62Q203.58-43.52 210.66-43.52L210.66-43.52L210.66-43.52Q217.73-43.52 221.15-41.41L221.15-41.41L221.15-41.41Q224.58-39.30 224.58-35.71L224.58-35.71L224.58-35.71Q224.58-32.58 222.14-30.59L222.14-30.59L222.14-30.59Q220.03-28.93 217.47-28.93L217.47-28.93L217.47-28.93Q214.91-28.93 213.12-29.57ZM231.04-31.17L231.04-31.17L231.04-31.17Q228.86-32.83 228.86-36.38L228.86-36.38L228.86-36.38Q228.86-39.94 231.20-41.79L231.20-41.79L231.20-41.79Q233.54-43.65 237.57-43.65L237.57-43.65L237.57-43.65Q240.13-43.65 246.21-42.75L246.21-42.75L250.56-42.11L250.56-42.11Q252.74-41.86 255.01-41.86L255.01-41.86L255.01-41.86Q257.28-41.86 258.82-42.82L258.82-42.82L258.82-42.82Q261.12-40.77 261.12-37.82L261.12-37.82L261.12-37.82Q261.12-34.88 258.50-32.77L258.50-32.77L258.50-32.77Q255.81-30.53 252.35-30.53L252.35-30.53L252.35-30.53Q250.69-30.53 248-30.98L248-30.98L248-30.98Q244.86-21.12 244.86-14.27L244.86-14.27L244.86-14.27Q244.86-7.42 248.32-3.84L248.32-3.84L248.32-3.84Q246.72-0.96 244.35 0.16L244.35 0.16L244.35 0.16Q241.98 1.28 238.43 1.28L238.43 1.28L238.43 1.28Q234.88 1.28 232.67-0.67L232.67-0.67L232.67-0.67Q230.46-2.62 230.46-6.66L230.46-6.66L230.46-6.66Q230.46-11.33 233.02-19.01L233.02-19.01L233.02-19.01Q235.58-26.62 239.42-32.45L239.42-32.45L239.42-32.45Q237.57-32.64 235.65-32.64L235.65-32.64L235.65-32.64Q231.68-32.64 231.04-31.17Z"></path></g></g><style>text {
  font-size: 64px;
  font-family: Arial Black;
  dominant-baseline: central;
  text-anchor: middle;
}</style></svg>